<?xml version="1.0" standalone="no"?>
<!DOCTYPE svg PUBLIC "-//W3C//DTD SVG 20010904//EN"
 "http://www.w3.org/TR/2001/REC-SVG-20010904/DTD/svg10.dtd">
<svg version="1.0" xmlns="http://www.w3.org/2000/svg"
 width="16.000000pt" height="16.000000pt" viewBox="0 0 16.000000 16.000000"
 preserveAspectRatio="xMidYMid meet">
<metadata>
Created by potrace 1.11, written by Peter Selinger 2001-2013
</metadata>
<g transform="translate(0.000000,16.000000) scale(0.006250,-0.006250)"
fill="#000000" stroke="none">
<path d="M20 1743 c0 -826 1 -836 34 -964 15 -57 84 -159 152 -225 78 -75 218
-144 324 -160 30 -4 147 -9 260 -10 113 -1 212 -2 220 -3 12 -1 15 -22 17
-115 1 -146 23 -197 98 -236 l49 -25 496 -2 c545 -2 561 0 619 58 40 39 53 92
54 212 0 79 3 99 16 106 9 4 53 6 99 6 l82 -2 0 833 c0 475 -4 834 -9 836 -5
2 -12 17 -14 33 -28 158 -155 320 -315 404 -45 23 -82 40 -82 37 0 -3 -12 -1
-27 5 -16 6 -37 14 -48 17 -11 4 -471 8 -1022 9 l-1003 4 0 -818z"/>
</g>
</svg>
